<?xml version="1.0" encoding="UTF-8" standalone="no"?>
<!-- Created with Inkscape (http://www.inkscape.org/) -->
<svg width="89.245583mm" height="35.692017mm" viewBox="0 0 89.245583 35.692017" version="1.1" id="svg5" xml:space="preserve" xmlns:inkscape="http://www.inkscape.org/namespaces/inkscape" xmlns:sodipodi="http://sodipodi.sourceforge.net/DTD/sodipodi-0.dtd" xmlns:xlink="http://www.w3.org/1999/xlink" xmlns="http://www.w3.org/2000/svg" xmlns:svg="http://www.w3.org/2000/svg"><sodipodi:namedview id="namedview7" pagecolor="#ffffff" bordercolor="#000000" borderopacity="0.25" inkscape:showpageshadow="2" inkscape:pageopacity="0.0" inkscape:pagecheckerboard="0" inkscape:deskcolor="#d1d1d1" inkscape:document-units="mm" showgrid="false"/><defs id="defs2"><linearGradient id="linearGradient7044"><stop style="stop-color:#6c3edd;stop-opacity:1;" offset="0" id="stop7040"/><stop style="stop-color:#7183da;stop-opacity:1;" offset="1" id="stop7042"/></linearGradient><linearGradient xlink:href="#linearGradient7044" id="linearGradient5456" gradientUnits="userSpaceOnUse" gradientTransform="matrix(0.79820818,0,0,0.79820818,-1479.6528,-575.83644)" x1="1705.4238" y1="838.20508" x2="1704.8359" y2="793.77539"/></defs><g inkscape:label="Layer 1" inkscape:groupmode="layer" id="layer1" transform="translate(134.57386,-57.76158)"><g id="g2373" inkscape:export-filename="g2373.png" inkscape:export-xdpi="300" inkscape:export-ydpi="300"><path style="color:#000000;fill:url(#linearGradient5456);fill-opacity:1;stroke-width:1;stroke-linecap:round;stroke-linejoin:round;stroke-miterlimit:5" d="m -125.50047,57.761577 c -5.0159,0 -9.0734,4.05596 -9.0734,9.07182 v 13.324777 c 0,5.01586 4.0575,9.07182 9.0734,9.07182 h 3.0401 l 3.1507,3.99572 c 0.2397,0.30385 0.7004,0.30385 0.9401,0 l 3.1507,-3.99572 h 3.0416 c 5.016,0 9.0719,-4.05596 9.0719,-9.07182 V 66.833397 c 0,-5.01585 -4.0559,-9.07182 -9.0719,-9.07182 z" id="path5440"/><path id="path5442" style="font-weight:bold;font-size:32px;font-family:'Co Headline';-inkscape-font-specification:'Co Headline Bold';text-align:center;direction:rtl;text-anchor:middle;white-space:pre;fill:#333333;fill-opacity:1;stroke:none;stroke-width:2.5;stroke-linecap:round;stroke-linejoin:round;stroke-miterlimit:5;paint-order:markers fill stroke" d="m -93.602848,68.040384 c -0.808405,0 -1.299997,0.31773 -1.299997,1.20524 v 6.31572 h 4.580303 6.339708 6.338821 6.34 6.33973 1.09306 c 0.80811,0 1.41072,-0.39702 1.80695,-0.79322 0.36465,0.28526 0.90291,0.95092 2.37683,0.95092 1.18871,0 1.88665,-0.44314 2.25101,-0.93444 0.36464,0.4913 1.06231,0.93444 2.25101,0.93444 1.47364,0 2.0122,-0.66566 2.37654,-0.95092 0.39652,0.3962 0.99884,0.79322 1.80725,0.79322 h 1.569 4.10435 v -7.03732 c -0.14233,-0.0475 -0.64928,-0.25332 -1.22,-0.25332 -0.80812,0 -1.29972,0.3169 -1.29972,1.15686 v 3.91482 h -1.58463 -1.10958 c -1.01448,0 -1.15682,-0.47513 -1.15682,-1.45777 v -3.36047 c -0.14233,-0.0631 -0.63448,-0.25334 -1.22114,-0.25334 -0.80813,0 -1.28349,0.3169 -1.28349,1.15688 v 2.90009 c 0,0.69737 -0.44348,1.01472 -0.99827,1.01472 -0.68144,0 -0.9826,-0.44356 -0.9826,-1.12505 v -3.69317 c -0.14234,-0.0633 -0.63364,-0.25335 -1.22001,-0.25335 -0.80813,0 -1.28349,0.31689 -1.28349,1.15687 v 2.9001 c 0,0.69736 -0.44462,1.01472 -0.99941,1.01472 -0.68146,0 -0.98176,-0.44357 -0.98176,-1.12504 v -3.6932 c -0.14231,-0.0631 -0.63449,-0.25334 -1.22085,-0.25334 -0.80813,0 -1.2835,0.31691 -1.2835,1.15687 v 2.45704 c 0,0.98264 -0.14232,1.45779 -1.15709,1.45779 h -0.63364 -6.33973 -6.34 -6.338821 -6.339708 -2.060581 v -5.03211 c -0.176484,-0.0794 -0.60175,-0.26984 -1.219725,-0.26984 z m -6.672762,0.0715 c -2.15537,0 -4.00958,1.49016 -4.00958,3.82 0,0.93507 -0.1594,1.4104 -1.14144,1.4104 h -0.0313 -3.19207 v 1.96653 0.25249 5.89684 c 0,1.34719 0.28579,2.32974 0.79304,3.01129 0.8084,1.06182 2.0916,1.61647 3.61306,1.61647 2.48812,0 4.374212,-1.7115 4.374212,-4.26312 0,-2.56752 -1.759132,-4.26391 -3.914792,-4.26391 -1.18841,0 -1.94899,0.49113 -2.32929,0.8715 v -2.86907 h 0.65584 0.45942 c 0.88782,0 1.45741,-0.50713 1.88552,-0.9509 0.58638,0.52305 1.55391,1.10856 2.82174,1.10856 1.331019,0 3.962322,-0.80756 3.962322,-3.78715 0,-2.32983 -1.522308,-3.81999 -3.946952,-3.81999 z m -0.0285,2.15525 c 0.839999,0 1.45769,0.68149 1.45769,1.56899 0,0.88751 -0.617691,1.55353 -1.45769,1.55353 -0.84,0 -1.4742,-0.66602 -1.4742,-1.55353 0,-0.8875 0.6342,-1.56899 1.4742,-1.56899 z m 53.758357,6.10189 c -0.6974,0 -1.23624,0.55488 -1.23624,1.18891 0,0.63388 0.53884,1.18886 1.23624,1.18886 0.68144,0 1.20407,-0.5708 1.20407,-1.18886 0,-0.6181 -0.52263,-1.18891 -1.20407,-1.18891 z m -48.835624,1.18991 c -1.886089,0 -2.820595,0.46018 -2.820595,1.37938 0,0.58643 0.491305,1.04572 0.570722,1.12503 0.173637,-0.12669 0.823208,-0.47595 2.138575,-0.47595 1.394785,0 1.950137,0.44395 1.950137,1.18887 -0.300876,-0.0475 -0.728704,-0.0631 -1.410441,-0.0631 -2.710152,0 -3.899135,0.76102 -3.899135,2.71051 0,1.44221 0.903479,2.6621 4.120592,2.6621 1.902031,0 3.502618,-0.18986 3.756241,-0.26898 v -4.78725 c 0,-2.66255 -1.933627,-3.47079 -4.406096,-3.47079 z m 9.667272,0 c -2.630726,0 -3.755947,1.20469 -3.755947,2.75784 0,1.85434 1.473917,2.37777 3.13797,2.58372 l 0.824057,0.0948 c 0.776804,0.11069 1.141731,0.20581 1.141731,0.63363 0,0.39629 -0.444057,0.53878 -1.315641,0.53878 -1.521731,0 -2.772771,-0.52213 -3.121752,-0.77575 l -0.903479,1.64736 c 0.348696,0.26957 1.711031,1.04669 4.199141,1.04669 2.393325,0 3.820276,-1.04578 3.820276,-2.8208 0,-1.72749 -1.331301,-2.26646 -2.773622,-2.47253 l -1.442024,-0.2058 c -0.681734,-0.11069 -1.014774,-0.20637 -1.014774,-0.57078 0,-0.36458 0.3171,-0.60263 1.268104,-0.60263 1.695941,0 2.677975,0.58681 2.820875,0.72939 0.0797,-0.0475 0.744634,-0.42811 0.744634,-1.1096 0,-0.44374 -0.270417,-0.74474 -0.665507,-0.95079 -0.697384,-0.36454 -1.632458,-0.52333 -2.964042,-0.52333 z m 8.939102,0 c -2.630718,0 -3.756222,1.20469 -3.756222,2.75784 0,1.85434 1.473901,2.37777 3.137962,2.58372 l 0.82435,0.0948 c 0.7768,0.11069 1.14172,0.20581 1.14172,0.63363 0,0.39629 -0.44405,0.53878 -1.31565,0.53878 -1.521444,0 -2.773908,-0.52213 -3.122595,-0.77575 l -0.903474,1.64736 c 0.348697,0.26957 1.711878,1.04669 4.199999,1.04669 2.39333,0 3.82027,-1.04578 3.82027,-2.8208 0,-1.72749 -1.33215,-2.26646 -2.77448,-2.47253 l -1.44231,-0.2058 c -0.68145,-0.11069 -1.01364,-0.20637 -1.01364,-0.57078 0,-0.36458 0.3171,-0.60263 1.26811,-0.60263 1.69595,0 2.67798,0.58681 2.82059,0.72939 0.0797,-0.0475 0.74493,-0.42811 0.74493,-1.1096 0,-0.44374 -0.27042,-0.74474 -0.6655,-0.95079 -0.6974,-0.36454 -1.63247,-0.52333 -2.96406,-0.52333 z m 8.49537,0 c -1.88608,0 -2.82174,0.46018 -2.82174,1.37938 0,0.58643 0.49131,1.04572 0.57073,1.12503 0.17363,-0.12669 0.82434,-0.47595 2.13942,-0.47595 1.39507,0 1.94929,0.44395 1.94929,1.18887 -0.30087,-0.0475 -0.7287,-0.0631 -1.41016,-0.0631 -2.71015,0 -3.89855,0.76102 -3.89855,2.71051 0,1.44221 0.90376,2.6621 4.12087,2.6621 1.90174,0 3.50261,-0.18986 3.75623,-0.26898 v -4.78725 c 0,-2.66255 -1.9339,-3.47079 -4.40609,-3.47079 z m 9.76207,0 c -2.0603,0 -3.61306,1.06219 -3.61306,3.12252 v 5.18196 h 2.55218 v -4.45259 c 0,-1.07768 0.47536,-1.50616 1.28349,-1.50616 0.82405,0 1.37854,0.52312 1.37854,1.72765 v 4.2311 h 2.55161 v -4.2311 c 0,-1.20453 0.57072,-1.72765 1.39479,-1.72765 0.8084,0 1.26753,0.42848 1.26753,1.50616 v 4.45259 h 2.5519 3.78499 v -2.19875 h -3.78499 v -2.98321 c 0,-2.06033 -1.56899,-3.12252 -3.5977,-3.12252 -1.26783,0 -2.25015,0.44356 -2.86812,1.20431 -0.61798,-0.76075 -1.63332,-1.20431 -2.90116,-1.20431 z m -45.801817,2.33027 c 1.06174,0 1.82233,0.80805 1.82233,1.94918 0,1.14115 -0.76059,1.90171 -1.82233,1.90171 -1.06203,0 -1.82375,-0.71301 -1.82375,-1.90171 0,-1.09357 0.76172,-1.94918 1.82375,-1.94918 z m 9.540606,2.53635 c 0.74493,0 1.06146,0.0321 1.251892,0.0794 v 1.69478 c -0.142326,0.0475 -0.665228,0.0794 -1.22001,0.0794 -1.410441,0 -1.568991,-0.50667 -1.568991,-0.88705 0,-0.50715 0.267572,-0.96637 1.537109,-0.96637 z m 27.100611,0 c 0.74521,0 1.06259,0.0321 1.25274,0.0794 v 1.69478 c -0.14233,0.0475 -0.66608,0.0794 -1.22058,0.0794 -1.41045,0 -1.56927,-0.50667 -1.56927,-0.88705 0,-0.50715 0.2704,-0.96637 1.53711,-0.96637 z"/><g id="g5452" transform="matrix(0.79820818,0,0,0.79820818,-1472.2717,-508.12299)" style="fill:#ffffff;fill-opacity:1;stroke:none;stroke-width:1.25281;stroke-opacity:1"><g id="g5448" transform="translate(55.166986,1.3784179)" style="fill:#ffffff;fill-opacity:1;stroke:none;stroke-width:1.87921;stroke-opacity:1"><path style="color:#000000;fill:#ffffff;fill-opacity:1;stroke:none;stroke-width:1.87921;stroke-linecap:round;stroke-linejoin:round;stroke-miterlimit:5;stroke-opacity:1;paint-order:markers fill stroke" d="m 1645.7617,721.36328 c -1.0116,-0.0155 -2.0003,0.36131 -2.7461,1.04492 -0.7458,0.68355 -1.2071,1.63512 -1.2793,2.64453 a 0.75,0.75 0 0 0 0.6953,0.80274 0.75,0.75 0 0 0 0.8008,-0.69531 c 0.044,-0.61411 0.3427,-1.23017 0.7969,-1.64649 0.4541,-0.41623 1.093,-0.65981 1.709,-0.65039 0.6038,0.009 1.2233,0.26099 1.6621,0.67578 0.4389,0.4148 0.7263,1.01871 0.7695,1.6211 a 0.75,0.75 0 0 0 0.8008,0.69531 0.75,0.75 0 0 0 0.6953,-0.80274 c -0.071,-0.98835 -0.5141,-1.92281 -1.2344,-2.60351 -0.7201,-0.68069 -1.6791,-1.07078 -2.6699,-1.08594 z" id="path5444"/><path style="color:#000000;fill:#ffffff;fill-opacity:1;stroke:none;stroke-width:1.87921;stroke-linecap:round;stroke-linejoin:round;stroke-miterlimit:5;stroke-opacity:1;paint-order:markers fill stroke" d="m 1635.2012,721.36328 c -1.0116,-0.0154 -2.0004,0.36129 -2.7461,1.04492 -0.7457,0.68354 -1.2072,1.63513 -1.2793,2.64453 a 0.75,0.75 0 0 0 0.6953,0.80274 0.75,0.75 0 0 0 0.8008,-0.69531 c 0.044,-0.6141 0.3427,-1.23017 0.7969,-1.64649 0.454,-0.4162 1.0931,-0.6598 1.7089,-0.65039 0.6038,0.009 1.2233,0.26099 1.6621,0.67578 0.439,0.41479 0.7244,1.01871 0.7676,1.6211 a 0.75,0.75 0 0 0 0.8028,0.69531 0.75,0.75 0 0 0 0.6933,-0.80274 c -0.071,-0.98835 -0.5121,-1.9228 -1.2324,-2.60351 -0.7202,-0.68071 -1.6791,-1.07078 -2.6699,-1.08594 z" id="path5446"/></g><path style="color:#000000;fill:#ffffff;fill-opacity:1;stroke:none;stroke-width:1.25281;stroke-linecap:round;stroke-linejoin:round;stroke-miterlimit:5;stroke-opacity:1;paint-order:markers fill stroke" d="m 1701.8038,729.82031 a 0.75,0.75 0 0 0 -0.8632,0.61524 c -0.1841,1.09521 -0.7024,2.14214 -1.459,2.95507 -0.7567,0.81294 -1.7646,1.40396 -2.8438,1.66602 -1.2399,0.30109 -2.5992,0.16946 -3.7578,-0.36523 -1.1585,-0.5347 -2.1395,-1.4822 -2.7148,-2.6211 a 0.75,0.75 0 0 0 -1.0078,-0.33203 0.75,0.75 0 0 0 -0.3301,1.00781 c 0.732,1.4489 1.9519,2.62641 3.4258,3.30664 1.4739,0.68024 3.1608,0.84594 4.7382,0.46289 1.3703,-0.33273 2.6292,-1.06939 3.5899,-2.10156 0.9607,-1.03216 1.6042,-2.3399 1.8379,-3.73047 a 0.75,0.75 0 0 0 -0.6153,-0.86328 z" id="path5450"/></g></g></g></svg>